<svg xmlns="http://www.w3.org/2000/svg" width="414" height="414" viewBox="0 0 414 414" fill="none"><g clip-path="url(#clip0_877_1076)"><path d="M413.752 0.247559H275.917V138.083H413.752V0.247559Z" fill="#CEECF2"></path><path d="M275.917 0.247559H138.083V138.083H275.917V0.247559Z" fill="#F4A61D"></path><path d="M138.083 0.247559V138.083H0.24762C0.24762 62.0071 62.0072 0.247559 138.083 0.247559Z" fill="#00858D"></path><path d="M275.917 138.083H138.083V275.917H275.917V138.083Z" fill="#BD1D79"></path><path d="M69.1676 138.083H69.1626C31.1019 138.083 0.24762 168.937 0.24762 206.998V207.002C0.24762 245.063 31.1019 275.917 69.1626 275.917H69.1676C107.228 275.917 138.083 245.063 138.083 207.002V206.998C138.083 168.937 107.228 138.083 69.1676 138.083Z" fill="#786CB1"></path><path d="M413.752 275.917H275.917V413.752H413.752V275.917Z" fill="#BD1D79"></path><path d="M138.083 275.917H275.917C275.917 351.993 214.158 413.752 138.083 413.752V275.917Z" fill="#00858D"></path><path d="M138.083 275.917H0.24762V413.752H138.083V275.917Z" fill="#F4A61D"></path></g><defs><clipPath id="clip0_877_1076"><rect width="414" height="414" fill="white"></rect></clipPath></defs></svg>